<?xml version="1.0" standalone="no"?>
<!DOCTYPE svg PUBLIC "-//W3C//DTD SVG 20010904//EN"
 "http://www.w3.org/TR/2001/REC-SVG-20010904/DTD/svg10.dtd">
<svg version="1.0" xmlns="http://www.w3.org/2000/svg"
 width="455.000000pt" height="298.000000pt" viewBox="0 0 455.000000 298.000000"
 preserveAspectRatio="xMidYMid meet">
<metadata>
Created by potrace 1.16, written by Peter Selinger 2001-2019
</metadata>
<g transform="translate(0.000000,298.000000) scale(0.100000,-0.100000)"
fill="#000000" stroke="none">
<path d="M341 2779 c-106 -18 -211 -100 -265 -207 l-26 -51 0 -1042 0 -1042
25 -33 c15 -20 40 -37 63 -44 20 -5 136 -10 257 -10 325 0 476 -9 481 -29 17
-59 72 -147 120 -190 77 -70 144 -95 264 -95 82 -1 103 3 151 25 31 15 83 53
116 85 57 56 68 75 108 192 3 9 190 12 890 12 836 0 885 -1 885 -17 0 -39 60
-143 113 -196 76 -76 142 -101 262 -100 58 0 106 6 135 17 111 41 199 132 235
243 l17 53 115 0 c132 0 171 12 203 65 18 29 20 49 20 195 0 190 -3 199 -92
255 -32 21 -63 46 -68 56 -15 26 -27 137 -45 384 -17 242 -28 311 -57 369 -29
56 -100 128 -174 176 -79 52 -78 48 -99 325 -28 370 -40 418 -131 507 -66 65
-122 90 -224 99 -121 11 -3214 9 -3279 -2z m539 -449 l0 -290 -330 0 -330 0 1
88 c0 48 4 149 8 225 7 133 9 139 38 175 59 73 71 76 323 83 124 3 240 6 258
7 l32 2 0 -290z m720 0 l0 -290 -295 0 -295 0 0 290 0 290 295 0 295 0 0 -290z
m710 0 l0 -290 -295 0 -295 0 0 290 0 290 295 0 295 0 0 -290z m710 0 l0 -290
-295 0 -295 0 0 290 0 290 295 0 295 0 0 -290z m596 274 c49 -6 113 -56 137
-107 11 -22 22 -99 32 -228 8 -107 17 -202 19 -211 4 -17 -17 -18 -330 -18
l-334 0 0 290 0 290 218 -6 c119 -3 236 -7 258 -10z m-2130 -899 c40 -8 44
-41 44 -340 l0 -285 -24 -15 c-19 -13 -75 -17 -305 -22 l-282 -6 -30 29 -31
29 7 275 c3 151 9 285 12 297 7 31 25 37 153 44 114 6 415 2 456 -6z m2464 -6
c46 -11 106 -62 130 -110 11 -21 24 -69 29 -106 12 -85 35 -432 30 -437 -2 -2
-119 -1 -259 3 l-255 6 -79 45 c-85 48 -130 97 -145 159 -5 20 -11 131 -14
247 l-5 212 266 -5 c147 -3 283 -9 302 -14z m-3272 -7 c17 -17 19 -49 25 -428
6 -423 0 -623 -21 -661 -16 -29 -57 -36 -163 -28 -61 5 -92 12 -101 23 -10 12
-14 131 -16 543 l-3 527 27 21 c23 18 40 21 130 21 88 0 107 -3 122 -18z
m1657 -4 l27 -21 -7 -291 c-5 -229 -10 -294 -21 -307 -19 -21 -243 -32 -450
-22 -130 5 -150 9 -171 28 l-25 21 7 288 c7 263 9 290 26 307 18 18 39 19 303
19 276 0 284 -1 311 -22z m829 0 c11 -18 15 -81 18 -312 l3 -289 -27 -20 c-26
-19 -42 -20 -307 -21 l-279 -1 -26 24 -26 24 0 288 0 288 26 20 c26 20 38 21
315 21 288 0 289 0 303 -22z m1230 -980 c40 -57 6 -200 -41 -172 -42 26 -56
109 -28 164 19 36 48 39 69 8z m-3039 -118 c63 -39 89 -84 93 -161 4 -60 1
-74 -22 -113 -45 -77 -141 -118 -221 -96 -88 25 -155 112 -155 201 0 72 62
155 141 189 36 15 125 4 164 -20z m2541 -5 c54 -41 87 -98 92 -160 4 -46 0
-61 -23 -100 -30 -51 -98 -101 -153 -111 -48 -9 -107 11 -153 53 -53 48 -69
81 -69 145 1 128 93 213 218 203 38 -2 64 -11 88 -30z"/>
<path d="M1179 484 c-34 -36 -32 -105 3 -141 44 -43 130 -31 158 23 19 34 15
80 -10 114 -19 27 -27 30 -74 30 -44 0 -57 -4 -77 -26z"/>
<path d="M3716 484 c-20 -21 -26 -37 -26 -71 0 -62 32 -93 95 -93 60 0 81 12
95 55 14 43 6 82 -22 113 -32 33 -106 31 -142 -4z"/>
</g>
</svg>
