<?xml version="1.0" standalone="no"?>
<!DOCTYPE svg PUBLIC "-//W3C//DTD SVG 20010904//EN"
 "http://www.w3.org/TR/2001/REC-SVG-20010904/DTD/svg10.dtd">
<svg version="1.0" xmlns="http://www.w3.org/2000/svg"
 width="465.000000pt" height="282.000000pt" viewBox="0 0 465.000000 282.000000"
 preserveAspectRatio="xMidYMid meet">
<metadata>
Created by potrace 1.16, written by Peter Selinger 2001-2019
</metadata>
<g transform="translate(0.000000,282.000000) scale(0.100000,-0.100000)"
fill="#000000" stroke="none">
<path d="M2185 2770 c-200 -6 -224 -12 -294 -75 -74 -67 -105 -173 -127 -432
l-7 -83 -261 -1 c-592 -3 -1352 -15 -1368 -23 -10 -4 -20 -16 -23 -25 -3 -9
-6 -219 -7 -467 -2 -504 -1 -515 61 -527 31 -6 193 0 238 9 36 7 81 53 134
135 35 55 69 92 111 124 33 25 64 45 68 45 9 0 -28 -97 -66 -173 -16 -31 -34
-51 -52 -57 -47 -17 -55 -25 -69 -72 -14 -51 -52 -88 -88 -88 -12 0 -32 -11
-44 -24 -19 -20 -22 -33 -19 -63 7 -51 -16 -104 -52 -125 -25 -14 -30 -23 -30
-56 0 -23 6 -45 15 -52 19 -16 20 -90 0 -116 -8 -10 -15 -33 -15 -51 0 -25 8
-38 34 -58 41 -32 58 -74 50 -127 -8 -46 11 -72 57 -82 39 -8 88 -56 96 -96 8
-44 41 -63 95 -55 33 4 50 1 76 -14 17 -12 32 -27 32 -36 0 -34 80 -47 111
-19 23 21 91 20 121 0 38 -27 108 -14 108 19 0 27 50 49 123 54 l71 6 11 42
c13 54 37 79 95 98 57 19 79 55 60 97 -16 34 9 91 47 110 24 11 28 20 31 59 2
32 -2 50 -13 59 -20 17 -20 93 0 110 16 13 20 77 7 96 -4 6 -15 13 -24 17 -10
3 -27 21 -38 39 -16 26 -18 43 -14 84 6 46 4 53 -17 68 -13 9 -34 16 -47 16
-32 0 -78 50 -89 96 -8 38 -18 47 -64 63 -20 7 -37 32 -71 103 -25 52 -49 104
-53 117 l-7 23 33 -18 c53 -31 143 -125 178 -186 42 -75 83 -115 129 -127 42
-12 838 -31 1273 -31 352 0 346 -2 424 130 55 93 138 182 203 218 l42 23 -55
-118 c-56 -118 -74 -143 -105 -143 -23 0 -50 -32 -50 -59 0 -31 -61 -91 -93
-91 -43 0 -58 -25 -55 -90 2 -65 -17 -105 -58 -120 -20 -8 -24 -16 -24 -54 0
-26 6 -48 15 -56 9 -7 15 -29 15 -55 0 -26 -6 -48 -15 -55 -9 -8 -15 -30 -15
-57 0 -38 4 -46 29 -61 39 -22 51 -50 51 -123 l0 -60 38 -15 c85 -33 104 -51
116 -115 7 -34 41 -48 99 -42 45 5 48 4 92 -41 49 -49 84 -59 121 -31 25 19
95 19 120 0 37 -28 76 -19 114 26 34 39 39 41 105 46 81 6 91 12 99 57 7 39
50 82 91 92 47 11 55 22 55 79 0 70 15 106 53 130 40 25 45 60 18 111 -26 48
-26 70 -1 112 31 51 27 89 -14 113 -40 24 -56 61 -56 135 0 56 -14 74 -58 74
-33 0 -70 38 -87 89 -14 44 -21 51 -58 63 -40 13 -42 16 -93 129 l-51 117 33
-20 c49 -29 145 -136 178 -198 78 -149 89 -154 326 -158 177 -3 187 -2 229 20
63 33 85 79 89 190 4 77 1 93 -23 147 -32 70 -88 126 -136 136 -90 17 -110 44
-174 219 -48 133 -77 186 -123 228 -45 40 -67 49 -211 81 l-103 23 31 27 c18
15 51 31 74 37 62 15 72 23 75 61 5 60 -24 76 -153 89 -61 5 -147 10 -193 10
-75 0 -85 -2 -107 -25 -21 -20 -25 -34 -25 -80 0 -55 0 -55 -27 -49 -69 14
-161 45 -190 63 -17 11 -91 100 -164 198 -215 287 -232 302 -378 309 -174 8
-370 9 -546 4z m585 -200 c18 -10 143 -167 239 -300 70 -98 76 -130 35 -179
l-26 -31 -284 0 c-308 0 -337 4 -369 54 -21 32 -32 122 -39 320 l-5 159 216
-7 c120 -4 224 -11 233 -16z m-620 -225 c0 -90 -3 -170 -6 -179 -4 -9 -18 -16
-34 -16 -16 0 -30 7 -34 16 -3 9 -6 90 -6 180 0 162 0 165 23 173 12 5 30 5
40 -1 15 -8 17 -27 17 -173z m-955 -470 c78 -22 137 -67 261 -204 63 -69 140
-143 170 -163 l56 -38 412 0 c544 0 803 -9 822 -27 20 -21 17 -41 -8 -54 -30
-17 -1156 -16 -1238 0 -77 16 -113 44 -267 214 -98 107 -148 155 -177 167 -36
15 -90 19 -416 24 -323 6 -377 9 -392 23 -20 18 -22 31 -8 53 13 21 163 28
480 23 173 -3 271 -9 305 -18z m1407 15 c29 0 58 -23 58 -45 0 -7 -7 -21 -16
-29 -22 -23 -239 -23 -272 0 -66 46 18 89 153 78 28 -2 62 -4 77 -4z m1426
-78 c17 -22 72 -167 72 -192 0 -12 -7 -20 -17 -20 -24 0 -99 24 -161 50 -49
21 -52 25 -72 86 -12 36 -19 71 -16 79 10 27 171 25 194 -3z m-2990 -852 c71
-36 115 -83 150 -158 21 -47 24 -65 20 -131 -7 -121 -69 -214 -180 -273 -35
-18 -59 -22 -128 -22 -69 0 -93 4 -128 22 -104 55 -171 150 -179 256 -10 115
33 207 129 281 58 44 89 53 179 54 65 1 84 -3 137 -29z m2628 2 c58 -30 129
-113 154 -180 53 -139 -25 -322 -163 -383 -78 -35 -193 -34 -265 4 -114 60
-172 157 -172 288 0 61 5 80 32 131 34 64 86 115 152 148 56 29 200 25 262 -8z"/>
<path d="M845 778 c-34 -18 -45 -40 -45 -93 0 -61 19 -91 65 -104 77 -21 145
30 145 108 0 49 -55 101 -106 101 -22 0 -48 -6 -59 -12z"/>
<path d="M846 524 c-37 -37 -6 -124 45 -124 23 0 60 18 71 34 14 21 8 73 -10
89 -23 21 -86 22 -106 1z"/>
<path d="M3471 776 c-92 -51 -52 -195 54 -196 49 0 83 22 101 66 38 90 -67
179 -155 130z"/>
<path d="M3267 732 c-21 -23 -22 -71 -3 -97 10 -14 26 -20 56 -20 30 0 46 6
56 20 20 27 18 79 -4 98 -25 23 -85 22 -105 -1z"/>
<path d="M3687 732 c-21 -23 -22 -71 -3 -97 10 -14 26 -20 56 -20 30 0 46 6
56 20 20 27 18 79 -4 98 -25 23 -85 22 -105 -1z"/>
</g>
</svg>
