<?xml version="1.0" standalone="no"?>
<!DOCTYPE svg PUBLIC "-//W3C//DTD SVG 20010904//EN"
 "http://www.w3.org/TR/2001/REC-SVG-20010904/DTD/svg10.dtd">
<svg version="1.0" xmlns="http://www.w3.org/2000/svg"
 width="645.000000pt" height="362.000000pt" viewBox="0 0 645.000000 362.000000"
 preserveAspectRatio="xMidYMid meet">
<metadata>
Created by potrace 1.16, written by Peter Selinger 2001-2019
</metadata>
<g transform="translate(0.000000,362.000000) scale(0.100000,-0.100000)"
fill="#000000" stroke="none">
<path d="M3511 3421 c-25 -27 -32 -29 -120 -32 l-93 -4 -33 -37 -32 -38 -127
0 c-179 0 -216 -19 -216 -110 0 -33 6 -48 29 -71 l29 -29 280 0 279 0 27 25
c14 13 26 31 26 40 0 12 16 15 94 15 92 0 95 -1 124 -30 l30 -30 282 0 281 0
24 24 c45 45 45 107 0 152 -22 22 -31 24 -130 24 l-105 0 0 36 c0 26 -8 43
-29 65 l-29 29 -282 0 -282 0 -27 -29z"/>
<path d="M5402 3228 c-8 -8 -12 -45 -12 -109 0 -104 8 -123 52 -117 22 3 23 6
23 118 l0 115 -25 3 c-14 2 -31 -3 -38 -10z"/>
<path d="M4600 2878 c-30 -22 -115 -76 -189 -120 -167 -101 -245 -174 -386
-361 -116 -153 -154 -220 -180 -313 -9 -32 -37 -126 -62 -208 l-46 -149 24
-18 c13 -10 41 -27 61 -39 l37 -21 26 52 c36 72 190 273 247 323 26 23 91 68
145 100 54 33 122 77 151 98 46 34 55 38 70 26 93 -72 242 -215 331 -317 197
-229 251 -278 436 -400 196 -130 189 -121 321 -383 l84 -168 356 0 c196 0 354
3 352 8 -2 4 -70 140 -150 302 -184 368 -240 465 -287 496 -20 14 -116 78
-213 142 -97 65 -203 138 -235 163 -59 46 -270 271 -441 471 -92 108 -363 359
-385 357 -7 0 -37 -19 -67 -41z"/>
<path d="M5952 2837 c-79 -46 -98 -75 -68 -105 15 -16 21 -15 79 15 117 61
129 71 125 101 -5 43 -49 40 -136 -11z"/>
<path d="M5330 2821 c-82 -27 -169 -100 -206 -174 l-25 -49 26 -34 c85 -111
374 -414 395 -414 35 0 122 55 170 106 153 168 102 435 -102 540 -44 23 -68
28 -143 31 -49 1 -101 -1 -115 -6z"/>
<path d="M854 2810 c-12 -4 -30 -20 -42 -34 -19 -24 -25 -26 -109 -26 -96 0
-127 -12 -143 -56 -9 -24 -11 -24 -156 -24 l-146 0 -29 -29 c-52 -53 -34 -147
33 -170 19 -7 129 -11 282 -11 235 0 253 1 285 21 18 11 35 29 38 40 5 17 15
19 104 19 86 0 100 -2 108 -19 21 -38 56 -42 335 -39 l268 3 29 33 c31 35 37
73 17 117 -19 43 -56 55 -163 55 l-95 0 0 31 c0 41 -15 66 -50 84 -24 12 -76
15 -287 14 -142 0 -268 -4 -279 -9z"/>
<path d="M2501 2704 c-25 -19 -110 -74 -189 -122 -91 -55 -173 -113 -220 -157
-76 -70 -282 -336 -320 -410 -11 -22 -43 -119 -72 -215 -136 -455 -170 -518
-324 -611 -161 -98 -215 -140 -336 -266 l-114 -118 105 -7 c108 -6 136 -11
334 -52 72 -16 153 -26 201 -26 l82 0 166 180 c91 99 166 188 166 198 0 10
-12 58 -26 107 l-26 89 90 131 90 132 12 154 c7 85 9 183 6 219 -6 60 -5 68
23 112 39 61 134 131 284 208 117 61 159 71 165 38 3 -13 -25 -31 -114 -74
-134 -65 -257 -145 -281 -181 -13 -19 -17 -55 -18 -166 -1 -78 -6 -182 -10
-231 l-8 -90 -88 -131 -87 -131 29 -104 c28 -100 28 -104 11 -124 -10 -12 -69
-77 -132 -146 -63 -69 -124 -136 -135 -149 l-20 -24 45 7 c25 4 119 24 210 46
351 83 465 89 700 38 l145 -31 695 -4 c382 -2 700 0 707 4 8 6 -37 104 -145
323 -207 416 -230 452 -305 499 -128 78 -413 278 -464 324 -58 53 -277 292
-410 447 -45 52 -117 127 -160 165 -116 105 -210 185 -214 184 -2 0 -24 -16
-48 -35z"/>
<path d="M5882 2238 c-20 -20 -14 -45 16 -66 122 -85 197 -102 190 -44 -2 22
-18 36 -82 75 -83 49 -104 55 -124 35z"/>
<path d="M4466 2181 c-4 -5 -59 -43 -124 -82 -64 -40 -139 -91 -165 -112 -84
-69 -267 -328 -267 -378 0 -14 49 -89 58 -89 17 0 102 258 102 310 0 10 7 23
15 30 33 28 274 -189 404 -363 40 -54 146 -173 234 -266 89 -92 173 -183 186
-203 21 -31 32 -36 75 -42 61 -7 616 -8 616 -1 0 10 -132 271 -168 333 -27 46
-49 70 -82 89 -118 68 -302 204 -367 270 -40 41 -129 138 -197 216 -105 119
-276 284 -306 295 -5 2 -11 -1 -14 -7z"/>
<path d="M3520 2082 c-58 -49 -111 -96 -118 -104 -11 -13 4 -27 105 -97 65
-45 132 -91 149 -102 l31 -19 47 156 c25 87 45 158 44 159 -32 23 -131 87
-140 90 -7 3 -60 -35 -118 -83z"/>
<path d="M1425 1914 c-129 -106 -220 -200 -328 -339 -56 -71 -187 -218 -292
-325 -168 -171 -387 -412 -409 -447 -6 -10 40 -13 213 -13 l221 0 172 173
c153 153 185 180 283 237 173 103 187 120 261 312 29 76 114 354 114 372 0 8
-133 96 -145 96 -6 0 -47 -30 -90 -66z"/>
<path d="M4114 1753 c-18 -81 -40 -145 -70 -212 -19 -41 -34 -81 -34 -90 0 -9
71 -158 158 -331 l157 -315 334 -3 c286 -2 332 0 328 12 -20 51 -176 244 -309
382 -86 89 -191 209 -234 266 -99 131 -142 177 -229 248 -94 76 -93 76 -101
43z"/>
<path d="M608 1415 c-89 -80 -145 -141 -260 -285 -56 -69 -148 -173 -205 -231
l-105 -106 63 -6 c78 -9 138 -9 177 -1 23 5 60 41 165 163 74 86 185 206 246
266 61 61 111 114 111 119 0 9 -108 128 -122 134 -4 2 -35 -22 -70 -53z"/>
<path d="M5580 706 c-6 -8 -10 -25 -8 -38 l3 -23 325 0 325 0 3 29 c2 16 -2
32 -10 37 -7 5 -151 9 -319 9 -255 0 -309 -2 -319 -14z"/>
<path d="M4324 625 c-13 -54 -9 -55 327 -55 266 0 310 2 323 16 19 18 19 20 6
45 -10 18 -25 19 -330 19 l-320 0 -6 -25z"/>
<path d="M912 498 c-16 -16 -15 -43 2 -57 9 -8 164 -10 556 -9 504 3 544 4
554 21 8 12 8 22 0 35 -10 16 -50 17 -556 20 -415 2 -547 -1 -556 -10z"/>
<path d="M3222 498 c-16 -16 -15 -43 2 -57 9 -8 140 -10 467 -9 l454 3 3 29
c2 16 -2 32 -10 37 -22 14 -902 11 -916 -3z"/>
<path d="M2326 237 c-11 -8 -17 -23 -14 -38 l3 -24 764 -3 c556 -1 768 1 777
9 20 16 17 47 -5 59 -32 16 -1502 14 -1525 -3z"/>
</g>
</svg>
