<?xml version="1.0" standalone="no"?>
<!DOCTYPE svg PUBLIC "-//W3C//DTD SVG 20010904//EN"
 "http://www.w3.org/TR/2001/REC-SVG-20010904/DTD/svg10.dtd">
<svg version="1.0" xmlns="http://www.w3.org/2000/svg"
 width="671.000000pt" height="533.000000pt" viewBox="0 0 671.000000 533.000000"
 preserveAspectRatio="xMidYMid meet">
<metadata>
Created by potrace 1.16, written by Peter Selinger 2001-2019
</metadata>
<g transform="translate(0.000000,533.000000) scale(0.100000,-0.100000)"
fill="#000000" stroke="none">
<path d="M2585 5185 l-25 -24 0 -251 c0 -137 -3 -250 -6 -250 -41 0 -320 87
-432 134 -58 25 -66 26 -87 12 l-23 -15 -5 -438 c-5 -437 -9 -506 -47 -808
-52 -414 -156 -774 -290 -1006 -79 -137 -71 -148 135 -174 180 -23 432 -69
608 -111 l147 -36 0 -499 c0 -274 -2 -499 -3 -499 -2 0 -58 18 -125 40 -67 22
-190 56 -275 77 l-153 38 1 77 c0 62 -4 82 -21 104 -39 54 -65 64 -227 93 -87
16 -160 31 -163 33 -2 3 -3 69 -2 146 l3 140 118 -39 c163 -55 304 -118 410
-185 77 -49 93 -56 116 -48 24 9 26 14 26 64 0 49 -28 293 -41 362 -5 25 -11
27 -117 47 -62 12 -193 32 -292 46 -99 14 -193 30 -208 35 -52 17 -89 53 -114
108 -32 69 -26 125 21 202 204 333 319 860 345 1580 4 129 7 236 6 238 -1 1
-44 7 -94 13 -51 6 -111 13 -134 17 l-42 8 -5 288 c-5 270 -6 289 -24 302 -29
21 -92 18 -116 -6 -19 -19 -20 -33 -20 -285 0 -146 -2 -265 -4 -265 -16 0
-219 66 -289 94 -94 38 -126 43 -145 24 -9 -9 -12 -101 -12 -352 0 -188 -5
-408 -10 -491 -43 -644 -162 -1143 -345 -1444 -19 -32 -35 -67 -35 -78 0 -39
30 -49 233 -77 181 -25 461 -77 565 -105 l42 -12 0 -149 c0 -138 -1 -150 -18
-150 -10 0 -81 11 -158 25 -76 14 -159 25 -182 25 -92 0 -155 -59 -168 -156
-3 -28 -9 -56 -13 -62 -5 -8 -62 -6 -196 4 -105 8 -271 16 -370 17 l-179 2
-10 -26 c-8 -23 -1 -41 54 -135 112 -191 189 -376 232 -554 46 -195 111 -359
203 -515 59 -101 83 -127 137 -150 33 -13 322 -15 2727 -15 l2689 0 53 28 c53
27 55 29 124 167 106 211 156 302 220 398 45 68 56 92 51 112 -12 49 15 50
-543 -19 l-41 -5 -4 194 c-4 261 20 239 -270 243 -122 2 -233 0 -245 -3 -13
-3 -32 -14 -43 -25 -19 -19 -20 -34 -20 -240 l0 -219 -32 -5 c-18 -3 -65 -7
-104 -10 l-72 -5 -5 46 c-8 70 -31 87 -127 91 l-80 4 0 343 0 343 68 16 c129
29 388 74 552 96 91 13 173 27 182 32 37 18 32 54 -15 135 -134 228 -225 504
-291 878 -59 333 -84 421 -163 580 -231 460 -676 759 -1194 801 -85 6 -87 6
-103 -18 -15 -24 -15 -33 6 -146 12 -67 19 -124 16 -127 -3 -3 -38 -9 -77 -14
l-71 -7 0 338 c0 404 -1 408 -95 408 -24 0 -39 -7 -54 -26 l-21 -27 0 -1703 0
-1704 -70 0 -70 0 0 1924 0 1923 -21 27 c-16 21 -29 26 -64 26 -35 0 -48 -5
-64 -26 -20 -26 -21 -38 -21 -372 l0 -345 -92 7 c-51 4 -103 10 -114 12 l-21
5 17 97 c10 53 21 113 25 134 5 29 3 40 -13 56 -18 18 -39 20 -248 25 -126 4
-243 9 -261 13 l-32 6 -3 265 -3 265 -28 24 c-37 31 -81 31 -112 -1z m808
-1071 l77 -7 0 -785 0 -785 -72 7 c-40 4 -94 9 -119 13 l-47 5 -6 77 c-4 42
-11 130 -17 196 -25 314 -22 994 8 1244 l6 53 46 -6 c25 -3 81 -8 124 -12z
m740 -481 c34 -265 44 -982 18 -1333 -7 -102 -14 -186 -15 -186 0 -1 -43 -5
-93 -9 l-93 -7 0 785 0 786 53 4 c136 9 124 13 130 -40z m-730 -1259 l67 -6 0
-624 0 -624 -122 0 c-111 0 -125 -2 -163 -25 -48 -27 -75 -75 -75 -129 0 -20
-2 -36 -5 -36 -20 0 -150 69 -253 135 l-122 78 0 508 c0 347 3 509 10 509 21
0 207 -73 285 -112 44 -22 110 -61 147 -85 71 -48 111 -53 125 -16 6 14 -26
306 -44 412 l-6 34 44 -6 c24 -4 74 -9 112 -13z m712 -506 c-4 -40 -20 -178
-36 -307 -35 -281 -35 -297 -10 -311 32 -17 48 -12 118 37 81 55 253 138 378
183 109 39 275 90 293 90 9 0 12 -71 12 -320 l0 -320 -59 0 c-108 0 -140 -24
-141 -107 l0 -53 -225 0 -225 0 0 124 c0 111 -2 126 -22 156 -42 61 -71 75
-164 79 l-84 3 0 403 0 404 43 4 c23 2 62 4 86 5 l43 2 -7 -72z"/>
</g>
</svg>
