<svg width="19" height="19" viewBox="0 0 19 19" fill="none" xmlns="http://www.w3.org/2000/svg">
<path d="M18.7774 9.37749C18.7737 10.9843 18.4248 12.4019 17.7198 13.7193C17.0555 14.9625 16.1389 15.9978 14.9848 16.8142C13.9717 17.5304 12.8621 18.0203 11.6487 18.2726C10.3053 18.5509 8.96195 18.5212 7.62972 18.2021C6.92464 18.0314 6.24925 17.7716 5.61468 17.4265C5.50706 17.3671 5.41429 17.3634 5.29925 17.4005C3.90023 17.8496 2.5012 18.2949 1.10218 18.7402C0.942607 18.7921 0.786748 18.8404 0.627178 18.8998C0.515849 18.9406 0.508428 18.8998 0.538115 18.807C0.701396 18.3283 0.860967 17.8496 1.02425 17.3671C1.37308 16.3244 1.7219 15.2816 2.07815 14.2425C2.1264 14.1052 2.05589 14.0162 2.00022 13.9197C1.56233 13.1589 1.25062 12.35 1.05765 11.4964C0.63831 9.65581 0.786748 7.8523 1.49183 6.10445C1.90003 5.09507 2.48265 4.1896 3.22855 3.38804C4.17855 2.36382 5.30296 1.6105 6.60179 1.10581C7.81526 0.634525 9.06956 0.452689 10.361 0.530619C12.1311 0.638236 13.7416 1.22456 15.1555 2.29331C16.985 3.67378 18.1354 5.48843 18.5955 7.74097C18.718 8.31617 18.7625 8.89878 18.7774 9.37749ZM9.74124 2.03355C9.39612 2.0187 8.99163 2.05953 8.58714 2.1189C8.42757 2.14117 8.27171 2.17456 8.11585 2.21538C5.70374 2.82769 3.97073 4.26753 2.95022 6.53492C2.36019 7.84488 2.20062 9.22906 2.42327 10.6466C2.59769 11.7673 3.01331 12.799 3.66272 13.7304C3.73323 13.8343 3.74437 13.9234 3.70355 14.0384C3.42894 14.8437 3.16175 15.6527 2.89085 16.4617C2.87601 16.5062 2.83148 16.5582 2.8723 16.599C2.91312 16.6435 2.96507 16.5953 3.0096 16.5804C3.8223 16.3207 4.63499 16.0646 5.44026 15.7937C5.62581 15.7306 5.75941 15.7603 5.91898 15.8568C7.74105 16.9515 9.68929 17.241 11.7414 16.6955C13.3 16.2835 14.584 15.4337 15.6008 14.1794C16.5842 12.966 17.1334 11.5781 17.2448 10.0269C17.3301 8.8357 17.1446 7.67788 16.6696 6.57203C16.0721 5.18042 15.1407 4.06714 13.8826 3.2396C12.6506 2.43062 11.2887 2.01499 9.74124 2.03355Z" fill="#282828"/>
<path d="M5 8.24242C5.01484 7.40746 5.34141 6.72093 5.97969 6.18656C6.16152 6.03441 6.38047 5.97132 6.62168 6.01214C6.72559 6.02699 6.8332 6.04183 6.9334 6.0307C7.18574 6.01214 7.33047 6.15316 7.4084 6.36097C7.6459 6.98441 7.87598 7.61156 8.10977 8.23499C8.1543 8.35374 8.14316 8.46136 8.0875 8.57269C7.94277 8.87328 7.7127 9.10706 7.48262 9.34085C7.28223 9.54496 7.27109 9.61175 7.4084 9.86038C8.07266 11.0627 8.98926 11.9979 10.2584 12.5657C10.3215 12.5916 10.3771 12.6362 10.4365 12.6621C10.5961 12.7401 10.7408 12.7327 10.8744 12.5953C11.1342 12.3319 11.3754 12.0498 11.6092 11.7604C11.791 11.534 11.8764 11.5006 12.1324 11.6157C12.7559 11.9051 13.3496 12.2428 13.9545 12.5694C14.1549 12.677 14.1771 12.8254 14.1475 13.0963C14.025 14.1985 13.1826 14.6994 12.2215 14.859C11.8986 14.911 11.5943 14.8813 11.29 14.7848C10.3994 14.5028 9.52363 14.1762 8.73691 13.6641C8.00215 13.1854 7.37129 12.5879 6.81836 11.9088C6.28027 11.2446 5.80156 10.5432 5.40449 9.78246C5.18184 9.34828 5 8.67289 5 8.24242Z" fill="#282828"/>
</svg>
